<svg width="250.000000" height="100.000000" viewBox="0 0 250 100" fill="none" xmlns="http://www.w3.org/2000/svg" xmlns:xlink="http://www.w3.org/1999/xlink">
	<desc>
			Created with Pixso.
	</desc>
	<defs>
		<clipPath id="clip2_3">
			<rect id="logo250x100" width="250.000000" height="100.000000" fill="white" fill-opacity="0"/>
		</clipPath>
	</defs>
	<rect id="logo250x100" width="250.000000" height="100.000000" fill="#FFFFFF" fill-opacity="0"/>
	<g clip-path="url(#clip2_3)">
		<path id="SUDUM" d="M65.03 62.75Q66.08 60.9 66.08 58.44Q66.08 55.97 65.12 54.33Q64.15 52.69 62.34 51.5Q60.52 50.32 57.92 49.25Q55.66 48.3 54.24 47.53Q52.81 46.76 52.13 45.82Q52.08 45.76 52.04 45.69Q51.45 44.79 51.45 43.51Q51.45 42.43 51.92 41.6Q51.98 41.5 52.04 41.4Q52.08 41.34 52.13 41.28Q52.71 40.47 53.77 40.01Q54.91 39.52 56.55 39.52Q57.72 39.52 58.86 39.7Q59.56 39.81 60.25 39.99Q62.07 40.46 64 41.26L65.63 37.11Q63.53 36.16 61.35 35.65Q59.17 35.13 56.7 35.13Q53.58 35.13 51.25 36.14Q49.31 36.98 48.1 38.43Q47.86 38.72 47.64 39.04Q47.54 39.19 47.45 39.34Q46.36 41.14 46.36 43.6Q46.36 45.6 47 47.07Q47.49 48.23 48.28 49.14Q48.49 49.39 48.73 49.61Q49.82 50.69 51.23 51.48Q52.64 52.28 54.18 52.9Q56.46 53.83 57.97 54.63Q59.49 55.44 60.24 56.4Q60.39 56.6 60.51 56.81Q60.99 57.65 60.99 58.77Q60.99 59.85 60.55 60.71Q60.46 60.89 60.35 61.05Q60.34 61.06 60.34 61.07Q59.69 62.04 58.38 62.56Q57.06 63.08 55.06 63.08Q53.96 63.08 52.87 62.95Q51.55 62.78 50.25 62.41Q47.89 61.73 45.98 60.89L45.98 65.75Q47.11 66.29 48.5 66.66Q49.89 67.04 51.45 67.23Q53.02 67.42 54.74 67.42Q58.26 67.42 60.81 66.35Q63.03 65.42 64.35 63.76Q64.54 63.52 64.72 63.26Q64.89 63.01 65.03 62.75ZM96.81 55.91L96.81 35.58L91.67 35.58L91.67 55.35Q91.67 57.8 90.91 59.53Q90.47 60.53 89.75 61.25Q89.22 61.77 88.55 62.15Q86.95 63.04 84.41 63.04Q80.8 63.04 78.95 61.24Q78.92 61.21 78.89 61.17Q77.04 59.3 77.04 55.37L77.04 35.58L71.89 35.58L71.89 55.82Q71.89 59.88 73.76 62.7Q74.31 63.53 75.03 64.26Q75.2 64.42 75.36 64.57Q78.49 67.42 84.22 67.42Q88.45 67.42 91.24 65.91Q93.27 64.81 94.55 63.15Q95.04 62.51 95.42 61.8Q95.5 61.65 95.57 61.5Q96.81 59.01 96.81 55.91ZM128.35 59.85Q130.32 56.3 130.32 50.99Q130.32 45.94 128.39 42.51Q127.45 40.85 126.13 39.58Q124.73 38.24 122.91 37.34Q119.37 35.58 114.49 35.58L104.82 35.58L104.82 67L113.54 67Q118.85 67 122.61 65.2Q124.73 64.19 126.28 62.62Q127.49 61.4 128.35 59.85ZM161.73 55.91L161.73 35.58L156.6 35.58L156.6 55.35Q156.6 57.8 155.84 59.53Q155.4 60.53 154.68 61.25Q154.15 61.77 153.47 62.15Q151.87 63.04 149.34 63.04Q145.73 63.04 143.88 61.24Q143.85 61.21 143.82 61.17Q141.97 59.3 141.97 55.37L141.97 35.58L136.81 35.58L136.81 55.82Q136.81 59.88 138.68 62.7Q139.24 63.53 139.96 64.26Q140.12 64.42 140.29 64.57Q143.42 67.42 149.14 67.42Q153.38 67.42 156.17 65.91Q158.19 64.81 159.48 63.15Q159.97 62.51 160.35 61.8Q160.42 61.65 160.5 61.5Q161.73 59.01 161.73 55.91ZM174.26 40.76L183.3 67L187.86 67L197.25 40.81L197.42 40.81Q197.38 41.71 197.3 43.21Q197.23 44.72 197.17 46.39Q197.12 48.07 197.12 49.51L197.12 67L202.04 67L202.04 35.58L194.82 35.58L185.82 60.66L185.69 60.66L176.99 35.58L169.75 35.58L169.75 67L174.43 67L174.43 49.76Q174.43 48.17 174.37 46.43Q174.3 44.69 174.22 43.17Q174.13 41.64 174.07 40.76L174.26 40.76ZM123.74 44.78Q124.95 47.27 124.95 51.14Q124.95 56.88 122.14 59.78Q122.09 59.83 122.03 59.88Q119.22 62.68 113.63 62.68L109.98 62.68L109.98 39.86L114.38 39.86Q117.82 39.86 120.17 41.07Q121.08 41.54 121.81 42.2Q122.99 43.25 123.74 44.78Z" fill="#71AAEB" fill-opacity="1.000000" fill-rule="evenodd"/>
		<path id="Vector 1" d="M10 10C98.54 29.25 149.13 29.41 240 10M10 90.5C100.89 69.84 151.49 69.82 240 90.5" stroke="#71AAEB" stroke-opacity="1.000000" stroke-width="3.000000"/>
	</g>
</svg>
