<svg width="250.000000" height="100.000000" viewBox="0 0 250 100" fill="none" xmlns="http://www.w3.org/2000/svg" xmlns:xlink="http://www.w3.org/1999/xlink">
	<defs>
		<clipPath id="clip9_1">
			<rect id="Windy" width="50.000000" height="50.000000" transform="translate(14.000000 25.000000)" fill="white" fill-opacity="0"/>
		</clipPath>
		<clipPath id="clip2_3">
			<rect id="logo250x100" width="250.000000" height="100.000000" fill="white" fill-opacity="0"/>
		</clipPath>
	</defs>
	<rect id="logo250x100" width="250.000000" height="100.000000" fill="#FFFFFF" fill-opacity="0"/>
	<g clip-path="url(#clip2_3)">
		<path id="SUDUM" d="M83.03 60.75Q84.08 58.9 84.08 56.44Q84.08 53.97 83.12 52.33Q82.15 50.69 80.34 49.5Q78.52 48.32 75.92 47.25Q73.66 46.3 72.24 45.53Q70.81 44.76 70.13 43.82Q70.08 43.76 70.04 43.69Q69.45 42.79 69.45 41.51Q69.45 40.43 69.92 39.6Q69.98 39.5 70.04 39.4Q70.08 39.34 70.13 39.28Q70.71 38.47 71.77 38.01Q72.91 37.52 74.55 37.52Q75.72 37.52 76.86 37.7Q77.56 37.81 78.25 37.99Q80.07 38.46 82 39.26L83.63 35.11Q81.53 34.16 79.35 33.65Q77.17 33.13 74.7 33.13Q71.58 33.13 69.25 34.14Q67.31 34.98 66.1 36.43Q65.86 36.72 65.64 37.04Q65.54 37.19 65.45 37.34Q64.36 39.14 64.36 41.6Q64.36 43.6 65 45.07Q65.49 46.23 66.28 47.14Q66.49 47.39 66.73 47.61Q67.82 48.69 69.23 49.48Q70.64 50.28 72.18 50.9Q74.46 51.83 75.97 52.63Q77.49 53.44 78.24 54.4Q78.39 54.6 78.51 54.81Q78.99 55.65 78.99 56.77Q78.99 57.85 78.55 58.71Q78.46 58.89 78.35 59.05Q78.34 59.06 78.34 59.07Q77.69 60.04 76.38 60.56Q75.06 61.08 73.06 61.08Q71.96 61.08 70.87 60.95Q69.55 60.78 68.25 60.41Q65.89 59.73 63.98 58.89L63.98 63.75Q65.11 64.29 66.5 64.66Q67.89 65.04 69.45 65.23Q71.02 65.42 72.74 65.42Q76.26 65.42 78.81 64.35Q81.03 63.42 82.35 61.76Q82.54 61.52 82.72 61.26Q82.89 61.01 83.03 60.75ZM114.81 53.91L114.81 33.58L109.67 33.58L109.67 53.35Q109.67 55.8 108.91 57.53Q108.47 58.53 107.75 59.25Q107.22 59.77 106.55 60.15Q104.95 61.04 102.41 61.04Q98.8 61.04 96.95 59.24Q96.92 59.21 96.89 59.17Q95.04 57.3 95.04 53.37L95.04 33.58L89.89 33.58L89.89 53.82Q89.89 57.88 91.76 60.7Q92.31 61.53 93.03 62.26Q93.2 62.42 93.36 62.57Q96.49 65.42 102.22 65.42Q106.45 65.42 109.24 63.91Q111.27 62.81 112.55 61.15Q113.04 60.51 113.42 59.8Q113.5 59.65 113.57 59.5Q114.81 57.01 114.81 53.91ZM146.35 57.85Q148.32 54.3 148.32 48.99Q148.32 43.94 146.39 40.51Q145.45 38.85 144.13 37.58Q142.73 36.24 140.91 35.34Q137.37 33.58 132.49 33.58L122.82 33.58L122.82 65L131.54 65Q136.85 65 140.61 63.2Q142.73 62.19 144.28 60.62Q145.49 59.4 146.35 57.85ZM179.73 53.91L179.73 33.58L174.6 33.58L174.6 53.35Q174.6 55.8 173.84 57.53Q173.4 58.53 172.68 59.25Q172.15 59.77 171.47 60.15Q169.87 61.04 167.34 61.04Q163.73 61.04 161.88 59.24Q161.85 59.21 161.82 59.17Q159.97 57.3 159.97 53.37L159.97 33.58L154.81 33.58L154.81 53.82Q154.81 57.88 156.68 60.7Q157.24 61.53 157.96 62.26Q158.12 62.42 158.29 62.57Q161.42 65.42 167.14 65.42Q171.38 65.42 174.17 63.91Q176.19 62.81 177.48 61.15Q177.97 60.51 178.35 59.8Q178.43 59.65 178.5 59.5Q179.73 57.01 179.73 53.91ZM192.26 38.76L201.3 65L205.86 65L215.25 38.81L215.42 38.81Q215.38 39.71 215.3 41.21Q215.23 42.72 215.17 44.39Q215.12 46.07 215.12 47.51L215.12 65L220.04 65L220.04 33.58L212.82 33.58L203.82 58.66L203.69 58.66L194.99 33.58L187.75 33.58L187.75 65L192.43 65L192.43 47.76Q192.43 46.17 192.37 44.43Q192.3 42.69 192.22 41.17Q192.13 39.64 192.07 38.76L192.26 38.76ZM141.74 42.78Q142.95 45.27 142.95 49.14Q142.95 54.88 140.14 57.78Q140.09 57.83 140.03 57.88Q137.22 60.68 131.63 60.68L127.98 60.68L127.98 37.86L132.38 37.86Q135.82 37.86 138.17 39.07Q139.08 39.54 139.81 40.2Q140.99 41.25 141.74 42.78Z" fill="#71AAEB" fill-opacity="1.000000" fill-rule="evenodd"/>
		<g clip-path="url(#clip9_1)">
			<path id="path" d="M26.48 41.72L26.5 41.7C27.06 41.7 27.5 42.14 27.5 42.7C27.5 43.26 27.06 43.7 26.5 43.7L26.48 43.68L26.48 41.72ZM26.48 50.06L26.5 50.04C27.06 50.04 27.5 50.48 27.5 51.04C27.5 51.6 27.06 52.04 26.5 52.04L26.48 52.02L26.48 50.06Z" fill="#000000" fill-opacity="0" fill-rule="nonzero"/>
			<path id="path" d="M26.5 42.7L24.41 42.7C22.11 42.7 20.25 44.57 20.25 46.87C20.25 49.17 22.11 51.04 24.41 51.04L26.5 51.04" stroke="#71AAEB" stroke-opacity="1.000000" stroke-width="2.000000" stroke-linejoin="round" stroke-linecap="round"/>
			<path id="path" d="M36.89 58.39L36.91 58.37C37.47 58.37 37.91 58.81 37.91 59.37C37.91 59.93 37.47 60.37 36.91 60.37L36.89 60.35L36.89 58.39ZM36.89 66.72L36.91 66.7C37.47 66.7 37.91 67.14 37.91 67.7C37.91 68.26 37.47 68.7 36.91 68.7L36.89 68.68L36.89 66.72Z" fill="#000000" fill-opacity="0" fill-rule="nonzero"/>
			<path id="path" d="M36.91 59.37L33.79 59.37C31.49 59.37 29.62 61.24 29.62 63.54C29.62 65.84 31.49 67.7 33.79 67.7L36.91 67.7" stroke="#71AAEB" stroke-opacity="1.000000" stroke-width="2.000000" stroke-linejoin="round" stroke-linecap="round"/>
			<path id="path" d="M42.1 31.31L42.12 31.29C42.68 31.29 43.12 31.73 43.12 32.29C43.12 32.85 42.68 33.29 42.12 33.29L42.1 33.27L42.1 31.31ZM42.1 39.64L42.12 39.62C42.68 39.62 43.12 40.06 43.12 40.62C43.12 41.18 42.68 41.62 42.12 41.62L42.1 41.6L42.1 39.64Z" fill="#000000" fill-opacity="0" fill-rule="nonzero"/>
			<path id="path" d="M42.12 32.29L39 32.29C36.69 32.29 34.83 34.15 34.83 36.45C34.83 38.75 36.69 40.62 39 40.62L42.12 40.62" stroke="#71AAEB" stroke-opacity="1.000000" stroke-width="2.000000" stroke-linejoin="round" stroke-linecap="round"/>
			<path id="path" d="M39.02 41.6L39 41.62C38.43 41.62 38 41.18 38 40.62C38 40.06 38.43 39.62 39 39.62L39.02 39.64L39.02 41.6ZM55.64 39.64L55.66 39.62C56.22 39.62 56.66 40.06 56.66 40.62C56.66 41.18 56.22 41.62 55.66 41.62L55.64 41.6L55.64 39.64Z" fill="#000000" fill-opacity="0" fill-rule="nonzero"/>
			<path id="path" d="M39 40.62L55.66 40.62" stroke="#71AAEB" stroke-opacity="1.000000" stroke-width="2.000000" stroke-linejoin="round" stroke-linecap="round"/>
			<path id="path" d="M26.52 52.02L26.5 52.04C25.94 52.04 25.5 51.6 25.5 51.04C25.5 50.48 25.94 50.04 26.5 50.04L26.52 50.06L26.52 52.02ZM57.73 50.06L57.75 50.04C58.31 50.04 58.75 50.48 58.75 51.04C58.75 51.6 58.31 52.04 57.75 52.04L57.73 52.02L57.73 50.06Z" fill="#000000" fill-opacity="0" fill-rule="nonzero"/>
			<path id="path" d="M26.5 51.04L57.75 51.04" stroke="#71AAEB" stroke-opacity="1.000000" stroke-width="2.000000" stroke-linejoin="round" stroke-linecap="round"/>
			<path id="path" d="M36.93 60.35L36.91 60.37C36.35 60.37 35.91 59.93 35.91 59.37C35.91 58.81 36.35 58.37 36.91 58.37L36.93 58.39L36.93 60.35ZM49.39 58.39L49.41 58.37C49.97 58.37 50.41 58.81 50.41 59.37C50.41 59.93 49.97 60.37 49.41 60.37L49.39 60.35L49.39 58.39Z" fill="#000000" fill-opacity="0" fill-rule="nonzero"/>
			<path id="path" d="M36.91 59.37L49.41 59.37" stroke="#71AAEB" stroke-opacity="1.000000" stroke-width="2.000000" stroke-linejoin="round" stroke-linecap="round"/>
		</g>
	</g>
</svg>
