<svg width="24.000000" height="24.000000" viewBox="0 0 24 24" fill="none" xmlns="http://www.w3.org/2000/svg" xmlns:xlink="http://www.w3.org/1999/xlink">
	<desc>
			Created with Pixso.
	</desc>
	<defs>
		<clipPath id="clip12_9">
			<rect id="Moon" width="24.000000" height="24.000000" fill="white" fill-opacity="0"/>
		</clipPath>
	</defs>
	<g clip-path="url(#clip12_9)">
		<path id="path" d="M14.02 2.2C11.29 2.91 9.27 5.4 9.27 8.36C9.27 11.87 12.12 14.72 15.63 14.72C18.59 14.72 21.08 12.7 21.79 9.97C21.92 10.62 22 11.3 22 12C22 17.52 17.52 22 12 22C6.47 22 2 17.52 2 12C2 6.47 6.47 2 12 2C12.69 2 13.37 2.07 14.02 2.2Z" fill="#000000" fill-opacity="0" fill-rule="nonzero"/>
		<path id="path" d="M9.27 8.36C9.27 11.87 12.12 14.72 15.63 14.72C18.59 14.72 21.08 12.7 21.79 9.97C21.92 10.62 22 11.3 22 12C22 17.52 17.52 22 12 22C6.47 22 2 17.52 2 12C2 6.47 6.47 2 12 2C12.69 2 13.37 2.07 14.02 2.2C11.29 2.91 9.27 5.4 9.27 8.36Z" stroke="#ABC6E4" stroke-opacity="1.000000" stroke-width="1.500000" stroke-linejoin="round"/>
	</g>
</svg>
