<svg width="24.000000" height="24.000000" viewBox="0 0 24 24" fill="none" xmlns="http://www.w3.org/2000/svg" xmlns:xlink="http://www.w3.org/1999/xlink">
	<desc>
			Created with Pixso.
	</desc>
	<defs>
		<clipPath id="clip12_11">
			<rect id="Sun 1" width="24.000000" height="24.000000" fill="white" fill-opacity="0"/>
		</clipPath>
	</defs>
	<g clip-path="url(#clip12_11)">
		<path id="path" d="M12 18.5C15.58 18.5 18.5 15.58 18.5 12C18.5 8.41 15.58 5.5 12 5.5C8.41 5.5 5.5 8.41 5.5 12C5.5 15.58 8.41 18.5 12 18.5Z" fill="#000000" fill-opacity="0" fill-rule="nonzero"/>
		<path id="path" d="M18.5 12C18.5 8.41 15.58 5.5 12 5.5C8.41 5.5 5.5 8.41 5.5 12C5.5 15.58 8.41 18.5 12 18.5C15.58 18.5 18.5 15.58 18.5 12Z" stroke="#71AAEB" stroke-opacity="1.000000" stroke-width="1.500000" stroke-linejoin="round"/>
		<path id="path" d="M12 3C12.69 3 13.25 2.44 13.25 1.75C13.25 1.05 12.69 0.5 12 0.5C11.3 0.5 10.75 1.05 10.75 1.75C10.75 2.44 11.3 3 12 3Z" fill="#71AAEB" fill-opacity="1.000000" fill-rule="nonzero"/>
		<path id="path" d="M19.25 6C19.94 6 20.5 5.44 20.5 4.75C20.5 4.05 19.94 3.5 19.25 3.5C18.55 3.5 18 4.05 18 4.75C18 5.44 18.55 6 19.25 6Z" fill="#71AAEB" fill-opacity="1.000000" fill-rule="nonzero"/>
		<path id="path" d="M22.25 13.25C22.94 13.25 23.5 12.69 23.5 12C23.5 11.3 22.94 10.75 22.25 10.75C21.55 10.75 21 11.3 21 12C21 12.69 21.55 13.25 22.25 13.25Z" fill="#71AAEB" fill-opacity="1.000000" fill-rule="nonzero"/>
		<path id="path" d="M19.25 20.5C19.94 20.5 20.5 19.94 20.5 19.25C20.5 18.55 19.94 18 19.25 18C18.55 18 18 18.55 18 19.25C18 19.94 18.55 20.5 19.25 20.5Z" fill="#71AAEB" fill-opacity="1.000000" fill-rule="nonzero"/>
		<path id="path" d="M12 23.5C12.69 23.5 13.25 22.94 13.25 22.25C13.25 21.55 12.69 21 12 21C11.3 21 10.75 21.55 10.75 22.25C10.75 22.94 11.3 23.5 12 23.5Z" fill="#71AAEB" fill-opacity="1.000000" fill-rule="nonzero"/>
		<path id="path" d="M4.75 20.5C5.44 20.5 6 19.94 6 19.25C6 18.55 5.44 18 4.75 18C4.05 18 3.5 18.55 3.5 19.25C3.5 19.94 4.05 20.5 4.75 20.5Z" fill="#71AAEB" fill-opacity="1.000000" fill-rule="nonzero"/>
		<path id="path" d="M1.75 13.25C2.44 13.25 3 12.69 3 12C3 11.3 2.44 10.75 1.75 10.75C1.05 10.75 0.5 11.3 0.5 12C0.5 12.69 1.05 13.25 1.75 13.25Z" fill="#71AAEB" fill-opacity="1.000000" fill-rule="nonzero"/>
		<path id="path" d="M4.75 6C5.44 6 6 5.44 6 4.75C6 4.05 5.44 3.5 4.75 3.5C4.05 3.5 3.5 4.05 3.5 4.75C3.5 5.44 4.05 6 4.75 6Z" fill="#71AAEB" fill-opacity="1.000000" fill-rule="nonzero"/>
	</g>
</svg>
