<svg width="200.000000" height="200.000000" viewBox="0 0 200 200" fill="none" xmlns="http://www.w3.org/2000/svg" xmlns:xlink="http://www.w3.org/1999/xlink">
	<desc>
			Created with Pixso.
	</desc>
	<defs>
		<clipPath id="clip4_1">
			<rect id="200x200" width="200.000000" height="200.000000" fill="white" fill-opacity="0"/>
		</clipPath>
	</defs>
	<rect id="200x200" width="200.000000" height="200.000000" fill="#FFFFFF" fill-opacity="0"/>
	<g clip-path="url(#clip4_1)">
		<circle id="Oval 1" cx="100.000000" cy="100.000000" r="90.000000" fill="#C4C4C4" fill-opacity="0"/>
		<circle id="Oval 1" cx="100.000000" cy="100.000000" r="89.000000" stroke="#71AAEB" stroke-opacity="1.000000" stroke-width="2.000000"/>
		<path id="Polygon 1" d="M101 6L96.66 13.5L105.33 13.5L101 6Z" fill="#71AAEB" fill-opacity="1.000000" fill-rule="evenodd"/>
		<path id="С" d="M100.67 15.15C102.69 15.15 104.21 16.31 104.45 18.32L102.59 18.32C102.45 17.37 101.72 16.78 100.71 16.78C99.36 16.78 98.47 17.82 98.47 19.63C98.47 21.5 99.37 22.48 100.69 22.48C101.68 22.48 102.41 21.94 102.59 21.01L104.45 21.02C104.25 22.63 102.9 24.12 100.67 24.12C98.33 24.12 96.6 22.48 96.6 19.63C96.6 16.78 98.36 15.15 100.67 15.15Z" fill="#71AAEB" fill-opacity="1.000000" fill-rule="evenodd"/>
		<path id="Ю" d="M96.75 176.27L98.6 176.27L98.6 180.06L99.92 180.06C100.14 177.56 101.82 176.15 103.98 176.15C106.3 176.15 108.07 177.78 108.07 180.63C108.07 183.49 106.3 185.12 103.98 185.12C101.91 185.12 100.28 183.81 99.96 181.51L98.6 181.51L98.6 185L96.75 185L96.75 176.27ZM103.98 183.48C105.32 183.48 106.2 182.48 106.2 180.63C106.2 178.78 105.32 177.78 103.98 177.78C102.64 177.78 101.77 178.78 101.77 180.63C101.77 182.48 102.64 183.48 103.98 183.48Z" fill="#71AAEB" fill-opacity="1.000000" fill-rule="evenodd"/>
		<path id="В" d="M181.48 105L177.75 105L177.75 96.27L181.25 96.27C183.17 96.27 184.15 97.2 184.15 98.51C184.15 99.53 183.48 100.18 182.57 100.38L182.57 100.47C183.56 100.51 184.49 101.29 184.49 102.58C184.49 103.97 183.44 105 181.48 105ZM179.6 97.76L179.6 99.92L180.97 99.92C181.72 99.92 182.28 99.5 182.28 98.81C182.28 98.18 181.82 97.76 181 97.76L179.6 97.76ZM179.6 101.17L179.6 103.49L181.1 103.49C182.13 103.49 182.58 103.06 182.58 102.4C182.58 101.68 182.03 101.17 181.15 101.17L179.6 101.17Z" fill="#71AAEB" fill-opacity="1.000000" fill-rule="evenodd"/>
		<path id="З" d="M23.29 101.55C23.29 103.04 21.89 104.12 19.93 104.12C18.01 104.12 16.65 103.06 16.62 101.53L18.48 101.53C18.51 102.17 19.12 102.59 19.93 102.59C20.78 102.59 21.37 102.12 21.37 101.42C21.37 100.72 20.76 100.22 19.77 100.22L18.95 100.22L18.95 98.87L19.77 98.87C20.61 98.87 21.19 98.41 21.19 97.72C21.19 97.06 20.69 96.61 19.94 96.61C19.19 96.61 18.58 97.04 18.56 97.71L16.79 97.71C16.82 96.2 18.16 95.15 19.95 95.15C21.76 95.15 22.97 96.23 22.96 97.61C22.97 98.59 22.29 99.28 21.32 99.45L21.32 99.52C22.6 99.68 23.29 100.46 23.29 101.55Z" fill="#71AAEB" fill-opacity="1.000000" fill-rule="evenodd"/>
		<line id="Line 1" x1="186.000000" y1="100.000000" x2="194.000000" y2="100.000000" stroke="#71AAEB" stroke-opacity="1.000000" stroke-width="1.000000"/>
		<line id="Line 1" x1="6.000000" y1="100.000000" x2="14.000000" y2="100.000000" stroke="#71AAEB" stroke-opacity="1.000000" stroke-width="1.000000"/>
		<line id="Line 1" x1="101.000000" y1="194.000000" x2="101.000000" y2="186.000000" stroke="#71AAEB" stroke-opacity="1.000000" stroke-width="1.000000"/>
		<line id="Line 2" x1="163.000000" y1="36.828457" x2="165.828369" y2="34.000000" stroke="#71AAEB" stroke-opacity="1.000000" stroke-width="1.000000"/>
		<line id="Line 2" x1="34.000000" y1="34.000000" x2="36.828400" y2="36.828415" stroke="#71AAEB" stroke-opacity="1.000000" stroke-width="1.000000"/>
		<line id="Line 2" x1="34.000000" y1="165.828461" x2="36.828369" y2="163.000000" stroke="#71AAEB" stroke-opacity="1.000000" stroke-width="1.000000"/>
		<line id="Line 2" x1="163.000000" y1="164.000000" x2="165.828430" y2="166.828415" stroke="#71AAEB" stroke-opacity="1.000000" stroke-width="1.000000"/>
	</g>
</svg>
