<svg width="200.000000" height="200.000000" viewBox="0 0 200 200" fill="none" xmlns="http://www.w3.org/2000/svg" xmlns:xlink="http://www.w3.org/1999/xlink">
	<desc>
			Created with Pixso.
	</desc>
	<defs>
		<clipPath id="clip4_1">
			<rect id="200x200" width="200.000000" height="200.000000" fill="white" fill-opacity="0"/>
		</clipPath>
	</defs>
	<rect id="200x200" width="200.000000" height="200.000000" fill="#FFFFFF" fill-opacity="0"/>
	<g clip-path="url(#clip4_1)">
		<circle id="Oval 1" cx="100.000000" cy="100.000000" r="90.000000" fill="#C4C4C4" fill-opacity="0"/>
		<circle id="Oval 1" cx="100.000000" cy="100.000000" r="89.000000" stroke="#71AAEB" stroke-opacity="1.000000" stroke-width="2.000000"/>
		<path id="Polygon 1" d="M101 6L96.66 13.5L105.33 13.5L101 6Z" fill="#71AAEB" fill-opacity="1.000000" fill-rule="evenodd"/>
		<path id="С" d="M100.56 15.15C102.32 15.15 103.75 16.2 104.08 18L103.02 18C102.76 16.79 101.72 16.14 100.56 16.14C98.98 16.14 97.73 17.37 97.73 19.63C97.73 21.9 98.98 23.12 100.56 23.12C101.72 23.12 102.76 22.48 103.02 21.27L104.08 21.27C103.75 23.06 102.32 24.12 100.56 24.12C98.33 24.12 96.71 22.39 96.71 19.63C96.71 16.87 98.33 15.15 100.56 15.15Z" fill="#71AAEB" fill-opacity="1.000000" fill-rule="evenodd"/>
		<path id="Ю" d="M97.05 176.27L98.11 176.27L98.11 180.24L99.72 180.24C99.87 177.71 101.44 176.15 103.56 176.15C105.8 176.15 107.42 177.87 107.42 180.63C107.42 183.39 105.8 185.12 103.56 185.12C101.48 185.12 99.93 183.62 99.73 181.18L98.11 181.18L98.11 185L97.05 185L97.05 176.27ZM103.56 184.13C105.15 184.13 106.39 182.9 106.39 180.63C106.39 178.37 105.15 177.14 103.56 177.14C101.98 177.14 100.73 178.37 100.73 180.63C100.73 182.9 101.98 184.13 103.56 184.13Z" fill="#71AAEB" fill-opacity="1.000000" fill-rule="evenodd"/>
		<path id="В" d="M181.21 105L178.05 105L178.05 96.27L181.1 96.27C182.93 96.27 183.78 97.31 183.78 98.58C183.78 99.71 183.12 100.21 182.37 100.41L182.37 100.5C183.17 100.55 184.12 101.3 184.12 102.68C184.12 103.99 183.27 105 181.21 105ZM179.11 97.21L179.11 100.1L181.07 100.1C182.02 100.1 182.77 99.51 182.77 98.58C182.77 97.82 182.26 97.21 181.1 97.21L179.11 97.21ZM179.11 101.02L179.11 104.06L181.21 104.06C182.59 104.06 183.12 103.45 183.12 102.68C183.12 101.79 182.4 101.02 181.26 101.02L179.11 101.02Z" fill="#71AAEB" fill-opacity="1.000000" fill-rule="evenodd"/>
		<g opacity="0.700000">
			<path id="З" d="M22.79 101.63C22.79 103.06 21.54 104.12 19.85 104.12C18.15 104.12 16.94 103.19 16.88 101.81L17.95 101.81C18.02 102.66 18.82 103.18 19.83 103.18C20.95 103.18 21.76 102.55 21.76 101.63C21.76 100.66 21.02 99.99 19.7 99.99L19 99.99L19 99.05L19.7 99.05C20.73 99.05 21.45 98.46 21.45 97.54C21.45 96.65 20.83 96.07 19.87 96.07C18.96 96.07 18.13 96.58 18.09 97.45L17.07 97.45C17.12 96.08 18.37 95.15 19.88 95.15C21.5 95.15 22.47 96.25 22.47 97.48C22.47 98.47 21.92 99.19 21.04 99.46L21.04 99.53C22.14 99.71 22.79 100.52 22.79 101.63Z" fill="#71AAEB" fill-opacity="1.000000" fill-rule="evenodd"/>
		</g>
		<line id="Line 1" x1="186.000000" y1="100.000000" x2="194.000000" y2="100.000000" stroke="#71AAEB" stroke-opacity="1.000000" stroke-width="1.000000"/>
		<line id="Line 1" x1="6.000000" y1="100.000000" x2="14.000000" y2="100.000000" stroke="#71AAEB" stroke-opacity="1.000000" stroke-width="1.000000"/>
		<line id="Line 1" x1="101.000000" y1="194.000000" x2="101.000000" y2="186.000000" stroke="#71AAEB" stroke-opacity="1.000000" stroke-width="1.000000"/>
		<line id="Line 2" x1="163.000000" y1="36.828457" x2="165.828369" y2="34.000000" stroke="#71AAEB" stroke-opacity="1.000000" stroke-width="1.000000"/>
		<line id="Line 2" x1="34.000000" y1="34.000000" x2="36.828400" y2="36.828415" stroke="#71AAEB" stroke-opacity="1.000000" stroke-width="1.000000"/>
		<line id="Line 2" x1="34.000000" y1="165.828461" x2="36.828369" y2="163.000000" stroke="#71AAEB" stroke-opacity="1.000000" stroke-width="1.000000"/>
		<line id="Line 2" x1="163.000000" y1="164.000000" x2="165.828430" y2="166.828415" stroke="#71AAEB" stroke-opacity="1.000000" stroke-width="1.000000"/>
	</g>
</svg>
